<svg width="64" height="64" viewBox="0 0 25 25" fill="none" xmlns="http://www.w3.org/2000/svg">
<path d="M3.75344 5.14294C3.34556 4.73506 2.67342 4.75943 2.33712 5.22809C0.866684 7.27721 0 9.78817 0 12.498C0 15.2406 0.887748 17.7802 2.39067 19.8429C2.70135 20.2693 3.3158 20.2917 3.68886 19.9186C4.06572 19.5418 4.68298 19.5734 5.06017 19.9499C5.10701 19.9967 5.15429 20.043 5.202 20.0889C5.51904 20.3937 6.01846 20.368 6.32946 20.057C6.68853 19.698 6.65272 19.1084 6.29233 18.7506C6.25805 18.7166 6.22405 18.6823 6.19033 18.6477C5.8656 18.3146 5.32541 18.2821 4.99648 18.611C4.67164 18.9358 4.13555 18.9123 3.87161 18.5363C2.671 16.826 1.96495 14.7428 1.96495 12.498C1.96495 10.2697 2.66069 8.20128 3.84528 6.49831C4.13711 6.07877 4.11481 5.50431 3.75344 5.14294Z" fill="#005FFF"/>
<path d="M19.9471 5.05751C20.3166 5.42737 20.925 5.46147 21.2947 5.0918L21.3015 5.085L21.3623 5.02428L21.3693 5.01713C21.7253 4.6612 21.7502 4.08832 21.3968 3.72982C21.1453 3.47467 20.8831 3.23025 20.6104 2.99702C18.4256 1.12938 15.5914 0 12.498 0C9.78811 0 7.27711 0.866719 5.22796 2.33721C4.75938 2.67347 4.73501 3.34551 5.14283 3.75333C5.50424 4.11474 6.07877 4.13695 6.4983 3.84501C8.20127 2.65998 10.2697 1.96495 12.498 1.96495C15.0496 1.96495 17.3917 2.87631 19.2163 4.3912C19.4675 4.59965 19.7088 4.81945 19.9395 5.04989L19.9433 5.05371L19.9471 5.05751Z" fill="#005FFF"/>
<path d="M19.9727 21.3622C20.3327 21.7222 20.912 21.7474 21.2743 21.3898C21.2908 21.3735 21.3073 21.3571 21.3238 21.3407C21.3266 21.3379 21.3294 21.3351 21.3323 21.3323C21.3351 21.3294 21.3379 21.3266 21.3407 21.3238C21.3571 21.3073 21.3734 21.2908 21.3898 21.2743C21.7474 20.9121 21.7222 20.3327 21.3622 19.9727L21.3072 19.9177C21.3063 19.9168 21.3054 19.9159 21.3045 19.9151L21.3015 19.912L19.3838 17.9943C20.5908 16.4869 21.3123 14.5753 21.3123 12.4981C21.3123 10.8198 20.8414 9.25085 20.0239 7.9146C19.7135 7.40729 19.0161 7.37051 18.5955 7.79104C18.2446 8.14199 18.2123 8.69404 18.4575 9.12554C19.0239 10.122 19.3473 11.2733 19.3473 12.4981C19.3473 14.0317 18.8402 15.4511 17.984 16.5945L16.543 15.1536C17.0455 14.391 17.3384 13.4787 17.3384 12.4981C17.3384 11.9772 17.2557 11.4758 17.1029 11.0059C16.8963 10.3705 16.1004 10.2861 15.628 10.7585C15.3131 11.0735 15.2495 11.5504 15.3283 11.9887C15.358 12.154 15.3734 12.3243 15.3734 12.4981C15.3734 12.9322 15.2771 13.3439 15.103 13.7135C14.8186 14.3245 14.3245 14.8186 13.7145 15.104C13.3449 15.2771 12.9332 15.3744 12.4981 15.3744C12.3232 15.3744 12.1523 15.3587 11.9865 15.3286C11.5489 15.2494 11.0731 15.3134 10.7587 15.6279C10.2857 16.1009 10.3703 16.8976 11.0065 17.1041C11.4765 17.2568 11.9779 17.3393 12.4981 17.3393C13.4777 17.3393 14.391 17.0465 15.1535 16.5431L16.5945 17.984C15.4511 18.8402 14.0326 19.3473 12.4981 19.3473C11.2726 19.3473 10.1217 19.0239 9.12548 18.4576C8.69402 18.2123 8.142 18.2446 7.79106 18.5955C7.37052 19.0161 7.40734 19.7135 7.91472 20.0238C9.25083 20.8408 10.8207 21.3123 12.4981 21.3123C14.5744 21.3123 16.4869 20.5899 17.9943 19.3838L19.9094 21.2989C19.9102 21.2997 19.9111 21.3006 19.912 21.3015L19.915 21.3046L19.9727 21.3622Z" fill="#005FFF"/>
<path d="M7.00276 5.61326C8.51015 4.40622 10.4218 3.6848 12.4981 3.6848C14.1763 3.6848 15.7465 4.15571 17.0827 4.97316C17.59 5.28351 17.6267 5.98091 17.2061 6.40143C16.8551 6.75245 16.303 6.78475 15.8714 6.53947C14.875 5.97317 13.7235 5.64975 12.4981 5.64975C10.9635 5.64975 9.54596 6.1569 8.40255 7.01305L9.84243 8.45306C10.605 7.95059 11.5184 7.65773 12.4981 7.65773C13.0187 7.65773 13.5207 7.74046 13.9912 7.89356C14.6268 8.1004 14.711 8.89656 14.2383 9.36923C13.9239 9.68365 13.4481 9.74786 13.0106 9.6686C12.8442 9.63846 12.6729 9.62268 12.4981 9.62268C12.0639 9.62268 11.6522 9.72 11.2826 9.8931C10.6725 10.1785 10.1785 10.6725 9.89309 11.2826C9.71999 11.6522 9.62268 12.0639 9.62268 12.4981C9.62268 12.6728 9.63845 12.8441 9.66858 13.0105C9.74784 13.4481 9.68363 13.9239 9.36917 14.2384C8.8962 14.7114 8.09957 14.6267 7.89304 13.9905C7.74032 13.5201 7.65773 13.0183 7.65773 12.4981C7.65773 11.5185 7.95056 10.6053 8.45297 9.84271C7.69318 9.08293 6.41391 9.17753 6.05049 10.1887C5.79108 10.9105 5.64975 11.688 5.64975 12.4981C5.64975 13.6799 5.95055 14.7929 6.47992 15.7644C6.72918 16.2219 7.34277 16.2647 7.71114 15.8963L7.75348 15.854C8.11467 15.4928 8.71602 15.5585 9.07721 15.9197C9.4384 16.2809 9.50417 16.8823 9.14298 17.2435L8.99854 17.3879C8.65639 17.73 8.10914 17.774 7.75997 17.439C7.73048 17.4108 7.70125 17.3822 7.67227 17.3534C7.29587 16.9792 6.67689 16.9307 6.30159 17.306C5.93439 17.6732 5.32602 17.641 5.04806 17.2024C4.18506 15.8404 3.6848 14.2259 3.6848 12.4981C3.6848 10.4218 4.40712 8.51118 5.61317 7.00286C6.02299 6.49013 6.48909 6.02308 7.00276 5.61326Z" fill="#005FFF"/>
</svg>
